<svg width="140" height="41" viewBox="0 0 140 41" fill="none" xmlns="http://www.w3.org/2000/svg">
<path d="M27.7826 11.4433H34.2769C37.0244 11.4433 39.879 12.0938 39.2189 15.9061C38.755 18.5982 37.1315 19.6461 35.5971 20.0436V20.0978C37.3813 20.4772 38.6123 21.4528 38.0949 24.4702C37.4169 28.3186 34.0806 29.3846 31.2795 29.3846H24.6604L27.7826 11.4433ZM31.5293 25.9156C32.9388 25.9156 33.7238 25.1387 33.9557 23.8378C34.1877 22.4466 33.6167 21.7781 32.2073 21.7781H30.3161L29.5846 25.9156H31.5293ZM32.689 18.6885C33.9914 18.6885 34.6515 18.1465 34.8835 16.8637C35.1154 15.5808 34.6158 15.075 33.3491 15.075H31.4758L30.8513 18.6885H32.689Z" fill="#F7F7F7"/>
<path d="M42.5017 11.4433H46.9621L44.4821 25.7168H50.9585L50.3163 29.3846H39.3973L42.5196 11.4433H42.5017Z" fill="#F7F7F7"/>
<path d="M52.4215 20.4049C53.5812 13.7921 57.4885 11.1001 61.3957 11.1001C65.303 11.1001 68.2646 13.7921 67.1049 20.4049C65.9453 27.0177 62.038 29.7098 58.1486 29.7098C54.2592 29.7098 51.2618 27.0177 52.4215 20.4049ZM62.6268 20.4049C63.2512 16.8094 62.6624 14.9304 60.7356 14.9304C58.8087 14.9304 57.5241 16.8275 56.8997 20.4049C56.2752 24.0004 56.864 26.0059 58.7909 26.0059C60.7177 26.0059 61.9845 23.9823 62.6089 20.4049H62.6268Z" fill="#F7F7F7"/>
<path d="M68.3182 20.4049C69.4779 13.7921 72.9569 11.1001 77.1318 11.1001C81.3067 11.1001 82.5199 13.5573 82.3058 17.5322L77.9882 18.291C78.0596 15.9964 77.7384 14.9485 76.3111 14.9485C74.4913 14.9485 73.4386 16.7733 72.7964 20.423C72.1541 24.1088 72.6179 26.024 74.4378 26.024C75.8829 26.024 76.6144 25.0845 77.4529 22.4285L81.5208 23.1151C80.254 26.8009 78.0952 29.7098 73.7598 29.7098C69.4243 29.7098 67.1585 27.0538 68.3182 20.423V20.4049Z" fill="#F7F7F7"/>
<path d="M85.3031 11.4433H89.71L88.4967 18.4536C88.9071 17.8393 89.7635 16.6649 90.2987 15.9783L93.7243 11.4433H98.4879L92.5824 18.5439L95.8295 29.3846H90.9945L89.032 22.4104L87.5512 24.0907L86.6234 29.4026H82.2166L85.3388 11.4614L85.3031 11.4433Z" fill="#F7F7F7"/>
<path d="M100.272 11.4433H110.977L110.317 15.2195H104.072L103.519 18.3452H107.979L107.373 21.8865H102.913L102.252 25.7168H108.8L108.158 29.3846H97.1676L100.29 11.4433H100.272Z" fill="#F7F7F7"/>
<path d="M115.33 25.7891H118.042L119.826 15.5086C119.023 15.9603 117.917 16.3397 117.025 16.3397L117.685 12.5997C118.863 12.5455 119.844 12.1841 120.647 11.4433H124.893L122.395 25.7891H124.768L124.144 29.3846H114.724L115.348 25.7891H115.33Z" fill="#F7F7F7"/>
<path d="M126.32 20.4049C127.409 14.1896 130.353 11.1001 134.599 11.1001C138.845 11.1001 140.718 14.2077 139.648 20.4049C138.56 26.6021 135.634 29.7098 131.37 29.7098C127.105 29.7098 125.25 26.6021 126.338 20.4049H126.32ZM135.223 20.4049C135.955 16.2313 135.527 14.8581 133.957 14.8581C132.386 14.8581 131.494 16.2313 130.763 20.4049C130.031 24.5786 130.477 26.0782 132.012 26.0782C133.546 26.0782 134.51 24.5786 135.223 20.4049Z" fill="#F7F7F7"/>
<path d="M8.07581 23.5567H2.28054C8.4246 15.5958 14.4882 7.79788 20.5517 0C20.6054 0 20.6322 0.0543406 20.6859 0.0815109C18.0297 5.78728 15.3736 11.5202 12.6906 17.3075H18.4858C12.2881 25.2956 6.19772 33.1478 0.10732 41C0.0804898 41 0.0536599 40.9728 0 40.9457C2.68299 35.1856 5.36599 29.4254 8.07581 23.5295V23.5567Z" fill="white"/>
</svg>
